# xmcd CD database file
#
# Track frame offsets:
#	150
#	19460
#	34184
#	45009
#	57418
#	82444
#	96195
#	118382
#	136224
#	148575
#	166921
#
# Disc length: 2540 seconds
#
# Revision: 0
# Processed by: cddbd v1.5.2PL0 Copyright (c) Steve Scherf et al.
# Submitted via: CDex 1.70beta2
#
DISCID=9b09ea0b
DTITLE=森川七月 - and Jazz
DYEAR=2008
DGENRE=Jazz
TTITLE0=Lullaby of Birdland
TTITLE1=All of me
TTITLE2=It's a sin to tell a lie
TTITLE3=Lover come back to me
TTITLE4=Stardust
TTITLE5=Love me or leave me
TTITLE6=Antonio's song(The rainbow)
TTITLE7=Why don't you do right
TTITLE8=A taste of honey
TTITLE9=It's too late
TTITLE10=Your song
EXTD=YEAR: 2008
EXTT0=
EXTT1=
EXTT2=
EXTT3=
EXTT4=
EXTT5=
EXTT6=
EXTT7=
EXTT8=
EXTT9=
EXTT10=
PLAYORDER=
